<svg width="32" height="32" viewBox="0 0 32 32" fill="none" xmlns="http://www.w3.org/2000/svg">
<path fill-rule="evenodd" clip-rule="evenodd" d="M27.107 6.00996C25.0046 5.05745 22.7851 4.38171 20.5052 4C20.1932 4.5519 19.9109 5.11973 19.6595 5.70112C17.231 5.33898 14.7613 5.33898 12.3328 5.70112C12.0813 5.11979 11.799 4.55197 11.4871 4C9.20578 4.38494 6.9848 5.06228 4.88026 6.01494C0.702192 12.132 -0.430415 18.0971 0.135889 23.9776C2.58267 25.7665 5.32131 27.127 8.23277 28C8.88835 27.1275 9.46845 26.2018 9.96692 25.2329C9.02015 24.883 8.10634 24.4512 7.23608 23.9427C7.46512 23.7783 7.68912 23.609 7.90558 23.4446C13.0325 25.8305 18.9674 25.8305 24.0943 23.4446C24.3133 23.6214 24.5373 23.7908 24.7638 23.9427C23.8919 24.4521 22.9764 24.8846 22.0279 25.2354C22.5258 26.2039 23.1059 27.1287 23.7621 28C26.676 27.1305 29.4168 25.7707 31.864 23.9801C32.5285 17.1606 30.7289 11.2503 27.107 6.00996ZM10.6842 20.3611C9.10614 20.3611 7.80238 18.944 7.80238 17.2005C7.80238 15.457 9.06083 14.0274 10.6792 14.0274C12.2976 14.0274 13.5913 15.457 13.5636 17.2005C13.5359 18.944 12.2925 20.3611 10.6842 20.3611ZM18.4363 17.2005C18.4363 18.944 19.735 20.3611 21.3156 20.3611C22.924 20.3611 24.1648 18.944 24.1925 17.2005C24.2202 15.457 22.9365 14.0274 21.3156 14.0274C19.6948 14.0274 18.4363 15.457 18.4363 17.2005Z" fill="#FFB400"/>
</svg>
