<svg width="32" height="32" viewBox="0 0 32 32" fill="none" xmlns="http://www.w3.org/2000/svg">
<path fill-rule="evenodd" clip-rule="evenodd" d="M32 16C32 7.16344 24.8366 0 16 0C7.16344 0 0 7.16344 0 16C0 24.8366 7.16344 32 16 32C24.8366 32 32 24.8366 32 16ZM22.4101 9.63919L22.5418 9.632C22.6742 9.62978 22.9701 9.66258 23.1618 9.81813C23.3237 9.94948 23.3682 10.1269 23.3895 10.2514C23.4108 10.376 23.4374 10.6596 23.4163 10.8813C23.3991 11.062 23.3778 11.2611 23.3529 11.4762L23.2679 12.1664L23.164 12.9369L23.0443 13.7725L22.8412 15.115L22.5414 16.9919L22.2297 18.857L21.8582 20.9878L21.6036 22.3845C21.3793 23.5835 20.9376 23.9855 20.5101 24.0249C19.9526 24.0762 19.4756 23.8448 18.9888 23.5242L18.6619 23.2993L18.3261 23.0606L17.9755 22.8209L17.1946 22.3035L15.1659 20.9291L14.4048 20.4224C13.3347 19.7172 13.4594 19.2272 13.9311 18.6937L14.0746 18.5399L14.487 18.1362L14.7494 17.8742L17.0124 15.756L18.0323 14.7802L18.4112 14.4068L18.7303 14.0821L18.9013 13.9001L19.033 13.7507L19.1203 13.6386C19.1415 13.6079 19.1543 13.5841 19.1581 13.568C19.168 13.5258 19.1772 13.3683 19.0837 13.2851C18.9901 13.202 18.852 13.2304 18.7524 13.253L18.7383 13.258L18.6509 13.304L18.1834 13.593L16.7039 14.5613L12.0035 17.7138C11.365 18.1523 10.7866 18.3659 10.2684 18.3547C9.90483 18.3469 9.32761 18.2182 8.74537 18.0572L8.24993 17.9134L7.2736 17.6051L6.96728 17.505C6.38567 17.3062 6.00326 17.1055 6.05221 16.7151C6.08833 16.427 6.4851 16.1323 7.24251 15.8311L9.37816 14.9018L15.2814 12.3563L17.7246 11.3348L19.7266 10.5208L20.8107 10.1018L21.2798 9.93294L21.5717 9.83554L21.8933 9.73992L22.0924 9.69067L22.2624 9.65792L22.4101 9.63919Z" fill="#FFB400"/>
</svg>
