<svg width="32" height="32" viewBox="0 0 32 32" fill="none" xmlns="http://www.w3.org/2000/svg">
<path fill-rule="evenodd" clip-rule="evenodd" d="M27.1388 4.47444C30.1007 7.32159 31.8383 11.1927 31.989 15.2795C32.0673 17.3716 31.7269 19.4585 30.9873 21.4195C30.2478 23.3807 29.1235 25.1772 27.6796 26.7054C26.2358 28.2336 24.5009 29.4633 22.575 30.3234C20.6491 31.1836 18.5704 31.6572 16.4588 31.7169H16.0012C13.6008 31.7175 11.231 31.1833 9.06705 30.1536L0.691835 32H0.667491C0.64997 31.9999 0.632664 31.9962 0.616736 31.9889C0.600807 31.9816 0.586612 31.9712 0.575096 31.9581C0.563581 31.945 0.555003 31.9296 0.549955 31.913C0.544897 31.8963 0.543477 31.8788 0.54578 31.8616L1.96086 23.4692C0.628198 21.0527 -0.0467184 18.3341 0.00251286 15.5806C0.0517452 12.8272 0.823426 10.1339 2.24163 7.76574C3.65984 5.3976 5.6757 3.43622 8.09086 2.07458C10.5061 0.712935 13.2372 -0.00204149 16.0158 4.37827e-06H16.0938C20.2198 0.024239 24.1769 1.6273 27.1388 4.47444ZM16.0012 28.9585H16.3793L16.3939 28.9634C19.8604 28.8562 23.1456 27.4036 25.5418 24.9186C27.9379 22.4336 29.2532 19.1152 29.2043 15.6782C29.1554 12.2413 27.746 8.96091 25.2801 6.54397C22.8141 4.12701 19.4889 2.76693 16.0207 2.75674H15.6362C13.339 2.82148 11.0986 3.47814 9.13553 4.66205C7.17241 5.84595 5.55433 7.51625 4.44062 9.50845C3.32692 11.5006 2.75603 13.746 2.78417 16.0234C2.81232 18.3008 3.43854 20.5316 4.60114 22.4961L4.84455 22.9046L3.79623 28.5999L9.47599 27.2698L9.90441 27.4917C11.7886 28.458 13.8797 28.9612 16.0012 28.9585Z" fill="#FFB400"/>
<path d="M10.438 8.20306C10.2403 8.20689 10.0453 8.25 9.8647 8.32984C9.68407 8.40968 9.52144 8.52463 9.38645 8.66788C9.00509 9.0555 7.93892 9.98835 7.87725 11.9473C7.81559 13.9063 9.19658 15.8444 9.38969 16.1162C9.58281 16.388 12.0299 20.6197 16.061 22.3357C18.4303 23.3474 19.4689 23.5211 20.1423 23.5211C20.4198 23.5211 20.6292 23.4922 20.8482 23.4793C21.5866 23.4343 23.2532 22.5883 23.6167 21.6683C23.9802 20.7483 24.0045 19.9441 23.9088 19.7833C23.8131 19.6224 23.5502 19.5066 23.1542 19.3007C22.7583 19.0949 20.8158 18.0655 20.4506 17.9208C20.3152 17.8583 20.1695 17.8207 20.0205 17.8098C19.9236 17.8149 19.8293 17.8432 19.7459 17.8926C19.6625 17.9419 19.5924 18.0107 19.5418 18.0928C19.2174 18.4934 18.4725 19.3634 18.2225 19.6144C18.1679 19.6767 18.1007 19.727 18.0252 19.7619C17.9498 19.7968 17.8676 19.8156 17.7843 19.8171C17.6309 19.8104 17.4807 19.7703 17.3446 19.6997C16.168 19.2044 15.0952 18.4952 14.1818 17.6088C13.3283 16.7751 12.6042 15.8206 12.0332 14.7765C11.8125 14.3711 12.0332 14.1621 12.2344 13.9723C12.4357 13.7824 12.6515 13.5204 12.8592 13.2935C13.0297 13.0998 13.1717 12.8832 13.2812 12.6502C13.3378 12.542 13.3664 12.4216 13.3644 12.2998C13.3624 12.1779 13.3299 12.0585 13.2698 11.9521C13.1741 11.7495 12.4584 9.75675 12.1225 8.95739C11.8499 8.27384 11.5253 8.25132 11.2413 8.23041C11.0076 8.21433 10.7399 8.20628 10.4721 8.19824H10.438" fill="#FFB400"/>
</svg>
